<svg xmlns="http://www.w3.org/2000/svg" style="fill:none" height="25" width="25" viewBox="0 0 25 25"><path style="stroke:#444;stroke-width:2.47474313" d="M3.756 21.78V7.772c0-.38.265-.693.591-.693h15.397c.633 0 1.146.598 1.146 1.336v13.36c0 .738-.513 1.336-1.146 1.336H4.902c-.633 0-1.146-.595-1.146-1.333zM21.48 12.424c4.28-1.283 1.784-2.316 0-2.672M3.756 12.424c-4.28-1.283-1.783-2.316 0-2.672M21.212 6.412H3.434c-.474 0-.86-.449-.86-1.002 0-.553.386-1.002.86-1.002h17.778c.475 0 .86.449.86 1.002 0 .553-.385 1.002-.86 1.002zM7.301 4.408l2.03-2.295c.214-.242.5-.377.798-.377h3.797c.298 0 .585.135.798.377l2.03 2.295"/></svg>
